<?xml version="1.0" encoding="utf-8"?>
<!-- Generator: Adobe Illustrator 23.0.0, SVG Export Plug-In . SVG Version: 6.00 Build 0)  -->
<svg version="1.1" id="Layer_1" xmlns="http://www.w3.org/2000/svg" xmlns:xlink="http://www.w3.org/1999/xlink" x="0px" y="0px"
	 viewBox="0 0 470 253" style="enable-background:new 0 0 470 253;" xml:space="preserve">
<style type="text/css">
	.st0{fill:#1E1F35;fill-opacity:0.8;}
	.st1{clip-path:url(#SVGID_2_);}
	.st2{fill:url(#SVGID_3_);fill-opacity:0.1;}
	.st3{fill:#FFF200;fill-opacity:0.3;}
</style>
<g>
	<path class="st0" d="M0,0v253h470V70.7L437,0H0z"/>
</g>
<g>
	<defs>
		<rect id="SVGID_1_" y="249" width="421.4" height="4"/>
	</defs>
	<clipPath id="SVGID_2_">
		<use xlink:href="#SVGID_1_"  style="overflow:visible;"/>
	</clipPath>
	<g class="st1">
		
			<linearGradient id="SVGID_3_" gradientUnits="userSpaceOnUse" x1="0" y1="2.89" x2="421.4" y2="2.89" gradientTransform="matrix(1 0 0 -1 0 253.89)">
			<stop  offset="0" style="stop-color:#FFFFFF"/>
			<stop  offset="1" style="stop-color:#FFFFFF;stop-opacity:0"/>
		</linearGradient>
		<path class="st2" d="M7.4,249l-1.9,4H0l1.9-4H7.4z M10.9,249L9,253h5.5l1.9-4H10.9z M19.9,249l-1.9,4h5.5l1.9-4H19.9z M28.9,249
			l-1.9,4h5.5l1.9-4H28.9z M37.9,249l-1.9,4h5.5l1.9-4H37.9z M46.9,249l-1.9,4h5.5l1.9-4H46.9z M55.9,249l-1.9,4h5.5l1.9-4H55.9z
			 M64.9,249l-1.9,4h5.5l1.9-4H64.9z M73.9,249l-1.9,4h5.5l1.9-4H73.9z M82.9,249l-1.9,4h5.5l1.9-4H82.9z M91.9,249l-1.9,4h5.5
			l1.9-4H91.9z M100.9,249l-1.9,4h5.5l1.9-4H100.9z M109.9,249l-1.9,4h5.5l1.9-4H109.9z M118.9,249l-1.9,4h5.5l1.9-4H118.9z
			 M127.9,249l-1.9,4h5.5l1.9-4H127.9z M136.9,249l-1.9,4h5.5l1.9-4H136.9z M145.9,249l-1.9,4h5.5l1.9-4H145.9z M154.9,249l-1.9,4
			h5.5l1.9-4H154.9z M163.9,249l-1.9,4h5.5l1.9-4H163.9z M172.9,249l-1.9,4h5.5l1.9-4H172.9z M181.9,249l-1.9,4h5.5l1.9-4H181.9z
			 M190.9,249l-1.9,4h5.5l1.9-4H190.9z M199.9,249l-1.9,4h5.5l1.9-4H199.9z M208.9,249l-1.9,4h5.5l1.9-4H208.9z M217.9,249l-1.9,4
			h5.5l1.9-4H217.9z M226.9,249l-1.9,4h5.5l1.9-4H226.9z M235.9,249l-1.9,4h5.5l1.9-4H235.9z M244.9,249l-1.9,4h5.5l1.9-4H244.9z
			 M253.9,249l-1.9,4h5.5l1.9-4H253.9z M262.9,249l-1.9,4h5.5l1.9-4H262.9z M271.9,249l-1.9,4h5.5l1.9-4H271.9z M280.9,249l-1.9,4
			h5.5l1.9-4H280.9z M289.9,249l-1.9,4h5.5l1.9-4H289.9z M298.9,249l-1.9,4h5.5l1.9-4H298.9z M307.9,249l-1.9,4h5.5l1.9-4H307.9z
			 M316.9,249l-1.9,4h5.5l1.9-4H316.9z M325.9,249l-1.9,4h5.5l1.9-4H325.9z M334.9,249l-1.9,4h5.5l1.9-4H334.9z M343.9,249l-1.9,4
			h5.5l1.9-4H343.9z M352.9,249l-1.9,4h5.5l1.9-4H352.9z M361.9,249l-1.9,4h5.5l1.9-4H361.9z M370.9,249l-1.9,4h5.5l1.9-4H370.9z
			 M379.9,249l-1.9,4h5.5l1.9-4H379.9z M388.9,249l-1.9,4h5.5l1.9-4H388.9z M397.9,249l-1.9,4h5.5l1.9-4H397.9z M406.9,249l-1.9,4
			h5.5l1.9-4H406.9z M415.9,249l-1.9,4h5.5l1.9-4H415.9z"/>
	</g>
</g>
<g>
	<path class="st3" d="M447,0l23,49.4V0L447,0z"/>
</g>
</svg>
