<svg xmlns="http://www.w3.org/2000/svg" viewBox="0 0 219.45 31.69"><g data-name="Layer 2"><path d="M219.45.77h-3.25v30.15h3.25zM206.76 21.1c0 .51.05 1.07.05 1.62a5.55 5.55 0 01-2 4.66 6 6 0 01-3.93 1.24 3.78 3.78 0 01-3.33-1.41 2.76 2.76 0 01-.47-1.58c0-2.61 3-3.29 3.37-3.38s.94-.21 1.41-.3c.69-.17 1.33-.29 2-.42.94-.17 1.92-.26 2.86-.43m-8.8-4.1a4.9 4.9 0 01.22-1.79c.81-2.44 3.5-2.44 4.14-2.44 4.1 0 4.35 3 4.44 4.44v1.67c-1 .13-2 .13-3.07.21s-2.18.26-3.25.43a11.71 11.71 0 00-4.91 1.84 5.43 5.43 0 00-2.18 4.35 5.57 5.57 0 004.06 5.34 8.45 8.45 0 002.78.43 8.83 8.83 0 006.87-3.29 3.59 3.59 0 00.69 1.71 3.13 3.13 0 00.68.77 4.31 4.31 0 002.14.51 6.22 6.22 0 002.17-.38v-2.87a3.75 3.75 0 01-1 .17c-1.41 0-1.45-1.06-1.5-1.53s0-.9 0-1.33v-6.57a12.13 12.13 0 00-.43-4.32 6.35 6.35 0 00-4.48-3.76 12.29 12.29 0 00-3.16-.42c-4.87 0-6.75 2.73-7.39 4.65a7.32 7.32 0 00-.34 2zm-23.83 3.93c0-3.16.94-4.74 2-5.81a5.88 5.88 0 014.45-1.84 6 6 0 015.29 3.12 8.74 8.74 0 01.94 4.32c0 3.93-1.58 6.1-3 7a5.73 5.73 0 01-3.24.9 5.86 5.86 0 01-5.53-3.25 9 9 0 01-.94-4.44m.11-20.16h-3.41v30.15h3.41v-2.6a7.06 7.06 0 002.27 2.05 8.53 8.53 0 004.61 1.19 9.91 9.91 0 004-.76 7.91 7.91 0 003.16-2.57 12.11 12.11 0 002.18-7.39c0-4.05-1.32-6.27-2.48-7.64a9.09 9.09 0 00-12.77-.77 11.81 11.81 0 00-.94 1.15zm-32.11 0h-3.25v30.15h3.25zM132.92 15h-14v3.38h10.5a8.73 8.73 0 01-3.75 7.86 12 12 0 01-6.67 2c-5.17 0-7.56-2.56-8.8-4.27a14.17 14.17 0 01-2.34-8.16 13.22 13.22 0 013.07-9 10.24 10.24 0 018.16-3.46c1.11 0 5.12.13 7.73 3.12a9.35 9.35 0 011.92 3.37l4.19-1.06a20.56 20.56 0 00-1.24-2.27A13.94 13.94 0 00124.5.9 16.59 16.59 0 00119 0c-6.36 0-9.7 2.86-11.45 4.78a17.24 17.24 0 00-4.1 11.45c0 8.59 5.09 12.56 8.12 14a15.71 15.71 0 006.87 1.45 14 14 0 009.83-3.5 12.59 12.59 0 001.19-1.49v4.22h3.51zm-47.37-4.19h-3.42v20.11h3.42V19.48a6.92 6.92 0 01.38-2.78 5.25 5.25 0 011.2-1.84 5.13 5.13 0 013.76-1.49 4.82 4.82 0 013 .9 4.33 4.33 0 011.54 3.84v12.81h3.37v-12c0-2.18.09-4.14-1.23-6a7.37 7.37 0 00-11-.6 7.38 7.38 0 00-1.07 1.41zm-20.16 0h-3l-4.95 15-5-14.95h-3.71l7 20.11h3.12l4.91-15 4.82 15h3L79 10.81h-3.62l-5.25 15zM41.69 21.1v1.62a5.55 5.55 0 01-2 4.66 6 6 0 01-3.93 1.24 3.78 3.78 0 01-3.33-1.41 2.76 2.76 0 01-.43-1.58c0-2.61 3-3.29 3.38-3.38s.94-.21 1.41-.3c.68-.17 1.32-.29 2-.42.94-.17 1.93-.26 2.87-.43M32.85 17a5.12 5.12 0 01.21-1.79c.81-2.44 3.5-2.44 4.14-2.44 4.1 0 4.36 3 4.44 4.44v1.67c-1 .13-2 .13-3.08.21s-2.18.26-3.25.43a11.75 11.75 0 00-4.91 1.84 5.43 5.43 0 00-2.18 4.35 5.57 5.57 0 004.06 5.34 8.5 8.5 0 002.78.43A8.83 8.83 0 0042 28.19a3.59 3.59 0 00.69 1.71 3.13 3.13 0 00.68.77 4.33 4.33 0 002.14.51 6.3 6.3 0 002.18-.38v-2.87a3.83 3.83 0 01-1 .17c-1.41 0-1.45-1.06-1.49-1.53a11.83 11.83 0 010-1.33v-6.57a12.42 12.42 0 00-.42-4.32 6.38 6.38 0 00-4.49-3.76 12.29 12.29 0 00-3.29-.42c-4.87 0-6.75 2.73-7.39 4.65a7.32 7.32 0 00-.34 2zM4.14 4.31h4.74a17.5 17.5 0 015.39.47A7.39 7.39 0 0116.83 6a8.22 8.22 0 011.49 1.41c1.84 2.27 2.35 5.64 2.35 8.42 0 4.57-1.24 7.21-2.6 8.75a9 9 0 01-6.79 2.82H4.14zM0 .77v30.15h10.55a16.21 16.21 0 005-.51 12.15 12.15 0 008.67-9.31 23.62 23.62 0 00.51-5.17c0-6.79-2.39-10.34-4.7-12.3A12.16 12.16 0 0012 .77zm156.37 20.75a10.76 10.76 0 10-10.76-10.76 10.75 10.75 0 0010.76 10.76" fill="#ffce0e" data-name="Layer 1"/></g></svg>