<?xml version="1.0" encoding="utf-8"?>
<!-- Generator: Adobe Illustrator 23.0.0, SVG Export Plug-In . SVG Version: 6.00 Build 0)  -->
<svg version="1.1" id="Layer_1" xmlns="http://www.w3.org/2000/svg" xmlns:xlink="http://www.w3.org/1999/xlink" x="0px" y="0px"
	 viewBox="0 0 72.6 92.9" style="enable-background:new 0 0 72.6 92.9;" xml:space="preserve">
<style type="text/css">
	.st0{fill:url(#SVGID_1_);}
</style>
<linearGradient id="SVGID_1_" gradientUnits="userSpaceOnUse" x1="36.301" y1="1.000977e-02" x2="36.301" y2="92.79">
	<stop  offset="0" style="stop-color:#F6C220"/>
	<stop  offset="0.1075" style="stop-color:#F6C220"/>
	<stop  offset="0.3925" style="stop-color:#F5EC80"/>
	<stop  offset="0.5358" style="stop-color:#F6C220"/>
	<stop  offset="0.8065" style="stop-color:#E6C738"/>
	<stop  offset="1" style="stop-color:#F6C220"/>
</linearGradient>
<path class="st0" d="M46.8,34c-0.6,0.5-0.8,1.3-0.6,2c0.2,0.7,0.9,1.3,1.7,1.5l4.3,1C65,41.3,72.6,50.5,72.6,63
	c0,17.8-14.8,29.7-36.7,29.7C23.1,92.8,9.3,88.6,0,82v-1.5l9.5-18.4c7.4,7.6,15.4,11.5,23.9,11.5c11.8,0,13.5-6.5,13.5-10.4
	c0-3.9-1.8-10.5-13.5-10.5H18.1V39.2l17.3-16.9c0.6-0.6,0.8-1.5,0.4-2.2s-1.2-1.2-2.2-1.2L0,18.8V0l72.7,0v14.8L46.8,34z"/>
</svg>
