<?xml version="1.0" encoding="utf-8"?>
<!-- Generator: Adobe Illustrator 23.0.0, SVG Export Plug-In . SVG Version: 6.00 Build 0)  -->
<svg version="1.1" id="Layer_1" xmlns="http://www.w3.org/2000/svg" xmlns:xlink="http://www.w3.org/1999/xlink" x="0px" y="0px"
	 viewBox="0 0 65.1 92.9" style="enable-background:new 0 0 65.1 92.9;" xml:space="preserve">
<style type="text/css">
	.st0{fill:url(#SVGID_1_);}
</style>
<linearGradient id="SVGID_1_" gradientUnits="userSpaceOnUse" x1="32.6312" y1="0.99" x2="32.6312" y2="93.69" gradientTransform="matrix(1 0 0 -1 0 93.89)">
	<stop  offset="0" style="stop-color:#F6C220"/>
	<stop  offset="0.1075" style="stop-color:#F6C220"/>
	<stop  offset="0.3925" style="stop-color:#F5EC80"/>
	<stop  offset="0.5358" style="stop-color:#F6C220"/>
	<stop  offset="0.8065" style="stop-color:#E6C738"/>
	<stop  offset="1" style="stop-color:#F6C220"/>
</linearGradient>
<path class="st0" d="M0.1,82.2c2.3-4.7,5.2-9.1,8.8-13s8.4-8.5,14.3-13.8l3-2.7c4.3-3.9,7.3-6.7,9.1-8.6c1.8-1.8,3.2-3.8,4.1-5.7
	c0.9-2,1.4-4.3,1.4-7.1c0-7.7-5-11.6-15.1-11.6c-7,0-14.5,1.6-22.4,4.7V4.7c3.8-1.4,8.2-2.5,13.2-3.3s9.9-1.2,14.8-1.2
	c10.7,0,18.8,2.7,24.5,8.1s8.5,13,8.5,22.7c0,5.2-1.2,9.8-3.6,13.8s-6.3,8.4-11.8,13.1L46.4,60c-4.1,3.5-7.3,6.3-9.6,8.5
	s-4.2,4.4-5.8,6.8h34.1v17.6h-65V82.2z"/>
</svg>
